<svg xmlns="http://www.w3.org/2000/svg" width="1200" height="560" viewBox="0 0 1200 560" role="img" aria-label="Engineering map: Anjali → AI/ML (NLP, computer vision, deep learning), Software engineering (backend, Web3 and security), Cloud (Docker, AWS/GCP) → projects RareCare, ShoulderMotion AI, Power Grid Prediction, Sigil.">
<defs>
  <pattern id="grid-m" width="28" height="28" patternUnits="userSpaceOnUse"><path d="M 28 0 L 0 0 0 28" fill="none" stroke="rgba(31,35,40,0.05)" stroke-width="1"/></pattern>
  <radialGradient id="g1-m" cx="0.1" cy="0" r="0.7"><stop offset="0" stop-color="rgba(79,70,229,0.12)"/><stop offset="1" stop-color="rgba(79,70,229,0.12)" stop-opacity="0"/></radialGradient>
  <radialGradient id="g2-m" cx="0.95" cy="1" r="0.7"><stop offset="0" stop-color="rgba(14,143,168,0.10)"/><stop offset="1" stop-color="rgba(14,143,168,0.10)" stop-opacity="0"/></radialGradient>
  <clipPath id="clip-m"><rect width="1200" height="560" rx="18"/></clipPath>
  <filter id="soft-m" x="-50%" y="-50%" width="200%" height="200%"><feGaussianBlur stdDeviation="3"/></filter>
</defs>
<g clip-path="url(#clip-m)"><rect width="1200" height="560" fill="#ffffff"/><rect width="1200" height="560" fill="url(#grid-m)"/><rect width="1200" height="560" fill="url(#g1-m)"/><rect width="1200" height="560" fill="url(#g2-m)"/></g>
<rect x="0.75" y="0.75" width="1198.5" height="558.5" rx="18" fill="none" stroke="#d0d7de"/>
<text x="40" y="60" font-family="ui-monospace, SFMono-Regular, 'SF Mono', Menlo, Consolas, monospace" font-size="10" letter-spacing="2" fill="#8c959f">IDENTITY</text><text x="40" y="164" font-family="ui-monospace, SFMono-Regular, 'SF Mono', Menlo, Consolas, monospace" font-size="10" letter-spacing="2" fill="#8c959f">ENGINEERING</text><text x="40" y="272" font-family="ui-monospace, SFMono-Regular, 'SF Mono', Menlo, Consolas, monospace" font-size="10" letter-spacing="2" fill="#8c959f">TECHNOLOGY</text><text x="40" y="404" font-family="ui-monospace, SFMono-Regular, 'SF Mono', Menlo, Consolas, monospace" font-size="10" letter-spacing="2" fill="#8c959f">PROJECTS</text>
<path d="M 600 74 C 600 108, 300 108, 300 142" fill="none" stroke="#d0d7de" stroke-width="1.25" ></path><path d="M 600 74 C 600 108, 640 108, 640 142" fill="none" stroke="#d0d7de" stroke-width="1.25" ></path><path d="M 600 74 C 600 108, 980 108, 980 142" fill="none" stroke="#d0d7de" stroke-width="1.25" ></path><path d="M 300 178 C 300 214, 160 214, 160 250" fill="none" stroke="#d0d7de" stroke-width="1.25" ></path><path d="M 300 178 C 300 214, 300 214, 300 250" fill="none" stroke="#d0d7de" stroke-width="1.25" ></path><path d="M 300 178 C 300 214, 440 214, 440 250" fill="none" stroke="#d0d7de" stroke-width="1.25" ></path><path d="M 640 178 C 640 214, 560 214, 560 250" fill="none" stroke="#d0d7de" stroke-width="1.25" ></path><path d="M 640 178 C 640 214, 720 214, 720 250" fill="none" stroke="#d0d7de" stroke-width="1.25" ></path><path d="M 980 178 C 980 214, 900 214, 900 250" fill="none" stroke="#d0d7de" stroke-width="1.25" ></path><path d="M 980 178 C 980 214, 1060 214, 1060 250" fill="none" stroke="#d0d7de" stroke-width="1.25" ></path><path d="M 160 286 C 160 334, 150 334, 150 382" fill="none" stroke="#0e8fa8" stroke-width="1.5" stroke-dasharray="4 6"><animate attributeName="stroke-dashoffset" from="0" to="-40" dur="2.4s" repeatCount="indefinite"/></path><circle r="3" fill="#0e8fa8"><animateMotion dur="3.2s" begin="2.4000000000000004s" repeatCount="indefinite" path="M 160 286 C 160 334, 150 334, 150 382"/></circle><path d="M 300 286 C 300 334, 380 334, 380 382" fill="none" stroke="#0e8fa8" stroke-width="1.5" stroke-dasharray="4 6"><animate attributeName="stroke-dashoffset" from="0" to="-40" dur="2.4s" repeatCount="indefinite"/></path><circle r="3" fill="#0e8fa8"><animateMotion dur="3.2s" begin="0s" repeatCount="indefinite" path="M 300 286 C 300 334, 380 334, 380 382"/></circle><path d="M 440 286 C 440 334, 630 334, 630 382" fill="none" stroke="#0e8fa8" stroke-width="1.5" stroke-dasharray="4 6"><animate attributeName="stroke-dashoffset" from="0" to="-40" dur="2.4s" repeatCount="indefinite"/></path><circle r="3" fill="#0e8fa8"><animateMotion dur="3.2s" begin="0.8s" repeatCount="indefinite" path="M 440 286 C 440 334, 630 334, 630 382"/></circle><path d="M 440 286 C 440 334, 150 334, 150 382" fill="none" stroke="#d0d7de" stroke-width="1.25" ></path><path d="M 560 286 C 560 334, 380 334, 380 382" fill="none" stroke="#d0d7de" stroke-width="1.25" ></path><path d="M 720 286 C 720 334, 860 334, 860 382" fill="none" stroke="#0e8fa8" stroke-width="1.5" stroke-dasharray="4 6"><animate attributeName="stroke-dashoffset" from="0" to="-40" dur="2.4s" repeatCount="indefinite"/></path><circle r="3" fill="#0e8fa8"><animateMotion dur="3.2s" begin="1.6s" repeatCount="indefinite" path="M 720 286 C 720 334, 860 334, 860 382"/></circle><path d="M 560 286 C 560 334, 150 334, 150 382" fill="none" stroke="#d0d7de" stroke-width="1.25" ></path>
<g transform="translate(496, 38)"><rect width="208" height="36" rx="9" fill="#f6f8fa" stroke="#4f46e5" stroke-width="2"/>
<text x="104" y="23" text-anchor="middle" font-family="ui-monospace, SFMono-Regular, 'SF Mono', Menlo, Consolas, monospace" font-size="14" font-weight="700" letter-spacing="1" fill="#1f2328">ANJALI · ENGINEERING</text>
</g>
<g transform="translate(252, 136)"><rect width="96" height="48" rx="9" fill="#f6f8fa" stroke="#d0d7de" stroke-width="1.25"/>
<text x="48" y="20" text-anchor="middle" font-family="ui-monospace, SFMono-Regular, 'SF Mono', Menlo, Consolas, monospace" font-size="13" font-weight="500" letter-spacing="1" fill="#1f2328">AI / ML</text>
<text x="48" y="37" text-anchor="middle" font-family="ui-monospace, SFMono-Regular, 'SF Mono', Menlo, Consolas, monospace" font-size="10" fill="#656d76">PyTorch · Transformers · Scikit-learn</text></g>
<g transform="translate(536, 136)"><rect width="208" height="48" rx="9" fill="#f6f8fa" stroke="#d0d7de" stroke-width="1.25"/>
<text x="104" y="20" text-anchor="middle" font-family="ui-monospace, SFMono-Regular, 'SF Mono', Menlo, Consolas, monospace" font-size="13" font-weight="500" letter-spacing="1" fill="#1f2328">SOFTWARE ENGINEERING</text>
<text x="104" y="37" text-anchor="middle" font-family="ui-monospace, SFMono-Regular, 'SF Mono', Menlo, Consolas, monospace" font-size="10" fill="#656d76">APIs · full-stack · auth</text></g>
<g transform="translate(932, 136)"><rect width="96" height="48" rx="9" fill="#f6f8fa" stroke="#d0d7de" stroke-width="1.25"/>
<text x="48" y="20" text-anchor="middle" font-family="ui-monospace, SFMono-Regular, 'SF Mono', Menlo, Consolas, monospace" font-size="13" font-weight="500" letter-spacing="1" fill="#1f2328">CLOUD</text>
<text x="48" y="37" text-anchor="middle" font-family="ui-monospace, SFMono-Regular, 'SF Mono', Menlo, Consolas, monospace" font-size="10" fill="#656d76">containers · deployment</text></g>
<g transform="translate(112, 244)"><rect width="96" height="48" rx="9" fill="#f6f8fa" stroke="#d0d7de" stroke-width="1.25"/>
<text x="48" y="20" text-anchor="middle" font-family="ui-monospace, SFMono-Regular, 'SF Mono', Menlo, Consolas, monospace" font-size="13" font-weight="500" letter-spacing="1" fill="#1f2328">NLP</text>
<text x="48" y="37" text-anchor="middle" font-family="ui-monospace, SFMono-Regular, 'SF Mono', Menlo, Consolas, monospace" font-size="10" fill="#656d76">BioBERT</text></g><g transform="translate(218.5, 244)"><rect width="163" height="48" rx="9" fill="#f6f8fa" stroke="#d0d7de" stroke-width="1.25"/>
<text x="81.5" y="20" text-anchor="middle" font-family="ui-monospace, SFMono-Regular, 'SF Mono', Menlo, Consolas, monospace" font-size="13" font-weight="500" letter-spacing="1" fill="#1f2328">COMPUTER VISION</text>
<text x="81.5" y="37" text-anchor="middle" font-family="ui-monospace, SFMono-Regular, 'SF Mono', Menlo, Consolas, monospace" font-size="10" fill="#656d76">MediaPipe · CNN</text></g><g transform="translate(367.5, 244)"><rect width="145" height="48" rx="9" fill="#f6f8fa" stroke="#d0d7de" stroke-width="1.25"/>
<text x="72.5" y="20" text-anchor="middle" font-family="ui-monospace, SFMono-Regular, 'SF Mono', Menlo, Consolas, monospace" font-size="13" font-weight="500" letter-spacing="1" fill="#1f2328">DEEP LEARNING</text>
<text x="72.5" y="37" text-anchor="middle" font-family="ui-monospace, SFMono-Regular, 'SF Mono', Menlo, Consolas, monospace" font-size="10" fill="#656d76">LSTM · CNN</text></g>
<g transform="translate(512, 244)"><rect width="96" height="48" rx="9" fill="#f6f8fa" stroke="#d0d7de" stroke-width="1.25"/>
<text x="48" y="20" text-anchor="middle" font-family="ui-monospace, SFMono-Regular, 'SF Mono', Menlo, Consolas, monospace" font-size="13" font-weight="500" letter-spacing="1" fill="#1f2328">BACKEND</text>
<text x="48" y="37" text-anchor="middle" font-family="ui-monospace, SFMono-Regular, 'SF Mono', Menlo, Consolas, monospace" font-size="10" fill="#656d76">FastAPI · Flask</text></g><g transform="translate(638.5, 244)"><rect width="163" height="48" rx="9" fill="#f6f8fa" stroke="#d0d7de" stroke-width="1.25"/>
<text x="81.5" y="20" text-anchor="middle" font-family="ui-monospace, SFMono-Regular, 'SF Mono', Menlo, Consolas, monospace" font-size="13" font-weight="500" letter-spacing="1" fill="#1f2328">WEB3 / SECURITY</text>
<text x="81.5" y="37" text-anchor="middle" font-family="ui-monospace, SFMono-Regular, 'SF Mono', Menlo, Consolas, monospace" font-size="10" fill="#656d76">Ethereum · IPFS · WebAuthn · ZK</text></g>
<g transform="translate(852, 250)"><rect width="96" height="36" rx="9" fill="#f6f8fa" stroke="#d0d7de" stroke-width="1.25"/>
<text x="48" y="23" text-anchor="middle" font-family="ui-monospace, SFMono-Regular, 'SF Mono', Menlo, Consolas, monospace" font-size="13" font-weight="500" letter-spacing="1" fill="#1f2328">DOCKER</text>
</g><g transform="translate(1005.5, 250)"><rect width="109" height="36" rx="9" fill="#f6f8fa" stroke="#d0d7de" stroke-width="1.25"/>
<text x="54.5" y="23" text-anchor="middle" font-family="ui-monospace, SFMono-Regular, 'SF Mono', Menlo, Consolas, monospace" font-size="13" font-weight="500" letter-spacing="1" fill="#1f2328">AWS / GCP</text>
</g>
<g transform="translate(100, 376)"><rect width="100" height="48" rx="9" fill="#f6f8fa" stroke="#0e8fa8" stroke-width="1.25"/>
<text x="50" y="20" text-anchor="middle" font-family="-apple-system, BlinkMacSystemFont, 'Segoe UI', Helvetica, Arial, sans-serif" font-size="13" font-weight="700" letter-spacing="0" fill="#1f2328">RareCare</text>
<text x="50" y="37" text-anchor="middle" font-family="ui-monospace, SFMono-Regular, 'SF Mono', Menlo, Consolas, monospace" font-size="10" fill="#656d76">in development</text></g><g transform="translate(289.5, 376)"><rect width="181" height="48" rx="9" fill="#f6f8fa" stroke="#0e8fa8" stroke-width="1.25"/>
<text x="90.5" y="20" text-anchor="middle" font-family="-apple-system, BlinkMacSystemFont, 'Segoe UI', Helvetica, Arial, sans-serif" font-size="13" font-weight="700" letter-spacing="0" fill="#1f2328">ShoulderMotion AI</text>
<text x="90.5" y="37" text-anchor="middle" font-family="ui-monospace, SFMono-Regular, 'SF Mono', Menlo, Consolas, monospace" font-size="10" fill="#656d76">live · open source</text></g><g transform="translate(521.5, 376)"><rect width="217" height="48" rx="9" fill="#f6f8fa" stroke="#0e8fa8" stroke-width="1.25"/>
<text x="108.5" y="20" text-anchor="middle" font-family="-apple-system, BlinkMacSystemFont, 'Segoe UI', Helvetica, Arial, sans-serif" font-size="13" font-weight="700" letter-spacing="0" fill="#1f2328">Power Grid Prediction</text>
<text x="108.5" y="37" text-anchor="middle" font-family="ui-monospace, SFMono-Regular, 'SF Mono', Menlo, Consolas, monospace" font-size="10" fill="#656d76">repository</text></g><g transform="translate(812, 376)"><rect width="96" height="48" rx="9" fill="#f6f8fa" stroke="#0e8fa8" stroke-width="1.25"/>
<text x="48" y="20" text-anchor="middle" font-family="-apple-system, BlinkMacSystemFont, 'Segoe UI', Helvetica, Arial, sans-serif" font-size="13" font-weight="700" letter-spacing="0" fill="#1f2328">Sigil</text>
<text x="48" y="37" text-anchor="middle" font-family="ui-monospace, SFMono-Regular, 'SF Mono', Menlo, Consolas, monospace" font-size="10" fill="#656d76">live demo · Sepolia</text></g>
<text x="1160" y="532" text-anchor="end" font-family="ui-monospace, SFMono-Regular, 'SF Mono', Menlo, Consolas, monospace" font-size="11" letter-spacing="1" fill="#8c959f">TECHNOLOGY → ENGINEERING → PROJECT · animated edges = shipped systems</text>
</svg>